#!OML:ASF H:\Punching\Project 1\Capture day 1\Session 1\female.ASF
:FULLY-SPECIFIED
:DEGREES
2699
root -0.866272 14.7851 -2.46064 11.5841 -24.8769 -5.23377
lowerback -8.76827 -1.9145 4.83694
upperback -8.24772 -2.872 2.35371
thorax -3.80919 -1.65609 -0.402006
lowerneck -10.5939 0.620087 2.77415
upperneck 37.6858 3.26566 -9.72471
head 15.135 0.270926 -4.18475
rclavicle -1.88348e-014 -8.74653e-015
rhumerus 12.7009 25.0685 -68.5317
rradius 131.808
rwrist -31.6781
rhand -31.843 -4.30614
rfingers 7.12502
rthumb -5.0971 -34.2248
lclavicle -1.88348e-014 -8.74653e-015
lhumerus 12.8098 -23.88 72.5563
lradius 130.349
lwrist 9.30416
lhand -24.8354 18.0199
lfingers 7.12502
lthumb 1.67052 47.9931
rfemur -3.22923 6.14968 23.409
rtibia 30.019
rfoot -32.7693 -26.4804
rtoes -5.66656
lfemur -39.7088 -5.84778 0.271373
ltibia 40.8668
lfoot -13.18 26.2504
ltoes 14.3425
2700
root -0.870406 14.7858 -2.46355 11.5495 -24.9135 -5.18437
lowerback -8.84967 -1.94096 4.79546
upperback -8.30354 -2.90928 2.35346
thorax -3.82296 -1.67442 -0.382545
lowerneck -10.425 0.791945 2.91614
upperneck 37.9772 3.56185 -9.88552
head 15.2772 0.39322 -4.25682
rclavicle 1.0635e-014 1.23246e-014
rhumerus 13.4352 25.3832 -68.5441
rradius 131.763
rwrist -31.6985
rhand -31.937 -4.28808
rfingers 7.12502
rthumb -5.18789 -34.2046
lclavicle 1.0635e-014 1.23246e-014
lhumerus 13.5737 -24.0812 72.6019
lradius 130.112
lwrist 9.45346
lhand -24.7534 18.1109
lfingers 7.12502
lthumb 1.7497 48.0835
rfemur -3.25094 6.16073 23.3739
rtibia 30.0803
rfoot -32.8001 -26.4645
rtoes -5.64312
lfemur -39.6113 -6.33478 0.398312
ltibia 40.7704
lfoot -13.5329 26.6519
ltoes 14.7289
2701
root -0.874651 14.7863 -2.46624 11.5174 -24.9528 -5.13807
lowerback -8.93099 -1.96393 4.76081
upperback -8.35033 -2.9425 2.35014
thorax -3.82754 -1.69078 -0.37024
lowerneck -10.2879 0.973259 3.07508
upperneck 38.2755 3.8722 -10.0491
head 15.4359 0.523247 -4.33311
rclavicle -1.52567e-014 1.78906e-014
rhumerus 14.1686 25.6851 -68.5411
rradius 131.727
rwrist -31.7393
rhand -32.028 -4.33713
rfingers 7.12502
rthumb -5.27575 -34.2515
lclavicle -1.52567e-014 1.78906e-014
lhumerus 14.3215 -24.2684 72.6502
lradius 129.885
lwrist 9.57729
lhand -24.6698 18.1465
lfingers 7.12502
lthumb 1.83049 48.1184
rfemur -3.27443 6.17047 23.3405
rtibia 30.1436
rfoot -32.8212 -26.4513
rtoes -5.65527
lfemur -39.5135 -6.85587 0.540204
ltibia 40.6765
lfoot -13.9355 27.0734
ltoes 15.1651
2702
root -0.878993 14.7867 -2.46891 11.4893 -24.997 -5.09913
lowerback -9.00974 -1.98287 4.73531
upperback -8.3876 -2.97095 2.34506
thorax -3.82386 -1.7049 -0.364888
lowerneck -10.1812 1.16413 3.23927
upperneck 38.5793 4.1949 -10.2017
head 15.6096 0.660362 -4.40542
rclavicle -5.73494e-014 9.14409e-015
rhumerus 14.8988 25.9789 -68.5142
rradius 131.691
rwrist -31.7798
rhand -32.1176 -4.4252
rfingers 7.12502
rthumb -5.36227 -34.3374
lclavicle -5.73494e-014 9.14409e-015
lhumerus 15.0476 -24.4512 72.7008
lradius 129.682
lwrist 9.70513
lhand -24.6109 18.1684
lfingers 7.12502
lthumb 1.88736 48.1397
rfemur -3.29969 6.18264 23.3132
rtibia 30.2065
rfoot -32.8408 -26.4357
rtoes -5.66909
lfemur -39.418 -7.41268 0.704184
ltibia 40.5863
lfoot -14.3933 27.5159
ltoes 15.6738
